<?xml version="1.0" encoding="utf-8"?>
<!-- Generator: Adobe Illustrator 21.1.0, SVG Export Plug-In . SVG Version: 6.00 Build 0)  -->
<svg version="1.1" xmlns="http://www.w3.org/2000/svg" xmlns:xlink="http://www.w3.org/1999/xlink" x="0px" y="0px" viewBox="0 0 1200 1920" style="enable-background:new 0 0 1200 1920;" xml:space="preserve">
<style type="text/css">
	.st0{fill:#F1D07E;stroke:#A0A0A0;stroke-miterlimit:10;}
	.st1{fill:#FFE292;}
	.st2{clip-path:url(#mask_3_);fill:#E07C92;}
	.st3{clip-path:url(#mask_4_);fill:#ECAFC8;}
	.st4{clip-path:url(#mask_5_);fill:#DC5068;}
	.st5{fill:none;stroke:#444444;stroke-miterlimit:10;}
	.st6{fill:#FCFAFA;stroke:#444444;stroke-miterlimit:10;}
	.st7{fill:#FFFFFF;}
	.st8{opacity:0.25;fill:#56493A;}
</style>
<g id="straw_1_">
	<path id="straw" class="st0" d="M577.9,1071.5l-23-3.3c-1.6-0.2-2.8-1.8-2.6-3.4l61.7-497.5c0.2-1.6,1.8-2.8,3.4-2.6l23,3.3
		c1.6,0.2,2.8,1.8,2.6,3.4L581.3,1069C581.1,1070.6,579.6,1071.8,577.9,1071.5z"/>
    <style type="text/css">

.st0:hover {
fill: #d9edf9;
}

</style>
    <animateTransform id="to0"
            attributeName="transform"
            begin="0s; to1.end"
            dur="0.6s"
            type="rotate"
            from="0 610 580"
            to="4 610 580"           
        />
        <animateTransform id="to1"
            attributeName="transform"
            begin="to0.end"
            dur="0.8s"
            type="rotate"
            from="4 610 580"
            to="0 610 580"           
        />

</g>
<g id="star">
	<polygon class="st1" points="288.5,742.8 293.7,753.3 305.3,755 296.9,763.2 298.9,774.8 288.5,769.4 278.1,774.8 280.1,763.2 
		271.7,755 283.3,753.3 	">
        <animateTransform attributeName="transform"
                    type="rotate"
                    from="0 600 900" to="-360 600 900"
                    begin="0s" dur="25s"
                    repeatCount="indefinite"
          />
    </polygon>
	<polygon class="st1" points="457.5,663.8 462.7,674.3 474.3,676 465.9,684.2 467.9,695.8 457.5,690.4 447.1,695.8 449.1,684.2 
		440.7,676 452.3,674.3 	">
        <animateTransform attributeName="transform"
                    type="rotate"
                    from="0 600 900" to="360 600 900"
                    begin="0s" dur="33s"
                    repeatCount="indefinite"
          />
    </polygon>
	<polygon class="st1" points="732.5,607.8 737.7,618.3 749.3,620 740.9,628.2 742.9,639.8 732.5,634.4 722.1,639.8 724.1,628.2 
		715.7,620 727.3,618.3 	">
        <animateTransform attributeName="transform"
                    type="rotate"
                    from="0 600 900" to="-360 600 900"
                    begin="0s" dur="29s"
                    repeatCount="indefinite"
          />
    </polygon>
	<polygon class="st1" points="896.5,742.8 901.7,753.3 913.3,755 904.9,763.2 906.9,774.8 896.5,769.4 886.1,774.8 888.1,763.2 
		879.7,755 891.3,753.3 	">
        <animateTransform attributeName="transform"
                    type="rotate"
                    from="0 600 900" to="-360 600 900"
                    begin="0s" dur="45s"
                    repeatCount="indefinite"
          />
    </polygon>
	<polygon class="st1" points="538.5,523.8 543.7,534.3 555.3,536 546.9,544.2 548.9,555.8 538.5,550.4 528.1,555.8 530.1,544.2 
		521.7,536 533.3,534.3 	">
        <animateTransform attributeName="transform"
                    type="rotate"
                    from="0 600 900" to="360 600 900"
                    begin="0s" dur="48s"
                    repeatCount="indefinite"
          />
    </polygon>
	<polygon class="st1" points="440.5,507.8 445.7,518.3 457.3,520 448.9,528.2 450.9,539.8 440.5,534.4 430.1,539.8 432.1,528.2 
		423.7,520 435.3,518.3 	">
        <animateTransform attributeName="transform"
                    type="rotate"
                    from="0 600 900" to="360 600 900"
                    begin="0s" dur="59s"
                    repeatCount="indefinite"
          />
    </polygon>
	<polygon class="st1" points="628.5,472.8 633.7,483.3 645.3,485 636.9,493.2 638.9,504.8 628.5,499.4 618.1,504.8 620.1,493.2 
		611.7,485 623.3,483.3 	">
        <animateTransform attributeName="transform"
                    type="rotate"
                    from="0 600 900" to="360 600 900"
                    begin="0s" dur="40s"
                    repeatCount="indefinite"
          />
    </polygon>
	<polygon class="st1" points="812.5,539.8 817.7,550.3 829.3,552 820.9,560.2 822.9,571.8 812.5,566.4 802.1,571.8 804.1,560.2 
		795.7,552 807.3,550.3 	">
        <animateTransform attributeName="transform"
                    type="rotate"
                    from="0 600 900" to="-360 600 900"
                    begin="0s" dur="36s"
                    repeatCount="indefinite"
          />
    </polygon>
	<polygon class="st1" points="350.5,607.8 355.7,618.3 367.3,620 358.9,628.2 360.9,639.8 350.5,634.4 340.1,639.8 342.1,628.2 
		333.7,620 345.3,618.3 	">
        <animateTransform attributeName="transform"
                    type="rotate"
                    from="0 600 900" to="-360 600 900"
                    begin="0s" dur="45s"
                    repeatCount="indefinite"
          />
    </polygon>
    
</g>
<g id="water">
	<g>
		<defs>
			<path id="mask_1_" d="M745.1,768h-298c-5.5,0-10,4.5-10,10l31,343c0,5.2,4.1,9.5,9.2,10l8.3,116.5h222L715,1131h2.1
				c5.5,0,10-4.5,10-10l28-343C755.1,772.5,750.6,768,745.1,768z"/>
		</defs>
		<clipPath id="mask_3_">
			<use xlink:href="#mask_1_"  style="overflow:visible;"/>
		</clipPath>
		<path class="st2" d="M741.5,1247.5h-286c-5.5,0-10-4.5-10-10v-354c0-5.5-4.5-13.5,8-10c0,0,92.5,36.5,144.5,14.5
			c67-28.4,143.5-14.5,143.5-14.5c5.5,0,10,4.5,10,10v354C751.5,1243,747,1247.5,741.5,1247.5z"/>
	</g>
	<g>
		<defs>
			<path id="mask" d="M745.1,768h-298c-5.5,0-10,4.5-10,10l31,343c0,5.2,4.1,9.5,9.2,10l8.3,116.5h222L715,1131h2.1
				c5.5,0,10-4.5,10-10l28-343C755.1,772.5,750.6,768,745.1,768z"/>
		</defs>
		<clipPath id="mask_4_">
			<use xlink:href="#mask"  style="overflow:visible;"/>
		</clipPath>
		<path class="st3" d="M741.5,1247.5h-286c-5.5,0-10-4.5-10-10v-286c0-5.5,4.5-10,10-10h286c5.5,0,10,4.5,10,10v286
			C751.5,1243,747,1247.5,741.5,1247.5z"/>
	</g>
	<g>
		<defs>
			<path id="mask_2_" d="M745.1,768h-298c-5.5,0-10,4.5-10,10l31,343c0,5.2,4.1,9.5,9.2,10l8.3,116.5h222L715,1131h2.1
				c5.5,0,10-4.5,10-10l28-343C755.1,772.5,750.6,768,745.1,768z"/>
		</defs>
		<clipPath id="mask_5_">
			<use xlink:href="#mask_2_"  style="overflow:visible;"/>
		</clipPath>
		<path class="st4" d="M741.5,1247.5h-286c-5.5,0-10-4.5-10-10v-227c0-5.5,4.5-10,10-10h286c5.5,0,10,4.5,10,10v227
			C751.5,1243,747,1247.5,741.5,1247.5z"/>
	</g>
    <style type="text/css">

.st2:hover {
fill: #ffe2c4;
}
.st3:hover {
fill: #ffe9fc;
}
.st4:hover {
fill: #b5e8f7;
}

.clickit{
opacity:0.8;
}

</style>
<script>

var clicker = document.querySelector('#water');

clicker.addEventListener('click', function() {
this.classList.toggle('clickit');
});

</script>
</g>
<g id="bubble">
	<circle class="st7" cx="0" cy="0" r="7" transform="translate(530 1198)">
        <animate attributeName="cy" attributeType="XML"
             from="0"  to="-130"
             begin="0s" dur="10s"
             additive="sum"
             fill="remove" repeatCount="indefinite"/>
        <animateTransform attributeName="transform"
                      type="scale"
                    additive="sum"
                      from="0 0" to="3 3"
                      begin="0s" dur="10s"
                      repeatCount="indefinite"
            />
        
    </circle>
	<circle class="st7" cx="0" cy="0" r="7" transform="translate(629 1191)">
        <animate attributeName="cy" attributeType="XML"
             from="0"  to="-110"
             begin="0s" dur="7s"
             additive="sum"
             fill="remove" repeatCount="indefinite"/>
        <animateTransform attributeName="transform"
                      type="scale"
                    additive="sum"
                      from="0 0" to="3 3"
                      begin="0s" dur="7s"
                      repeatCount="indefinite"
            />
        
    </circle>
	<circle class="st7" cx="0" cy="0" r="12" transform="translate(648 1106)">
        <animate attributeName="cy" attributeType="XML"
             from="0"  to="-220"
             begin="0s" dur="4s"
             additive="sum"
             fill="remove" repeatCount="indefinite"/>
        <animateTransform attributeName="transform"
                      type="scale"
                    additive="sum"
                      from="0 0" to="1.2 1.2"
                      begin="0s" dur="4s"
                      repeatCount="indefinite"
            />
        
    </circle>
	<circle class="st7" cx="0" cy="0" r="7" transform="translate(610 1227)">
        <animate attributeName="cy" attributeType="XML"
             from="0"  to="-320"
             begin="0" dur="8s"
             additive="sum"
             fill="remove" repeatCount="indefinite"/>
        <animateTransform attributeName="transform"
                      type="scale"
                    additive="sum"
                      from="0 0" to="1.1 1.1"
                      begin="0s" dur="8s"
                      repeatCount="indefinite"
            />
        
    </circle>
	<circle class="st7" cx="0" cy="0" r="7" transform="translate(673 1227)">
        <animate attributeName="cy" attributeType="XML"
             from="0"  to="-140"
             begin="0s" dur="12s"
             additive="sum"
             fill="remove" repeatCount="indefinite"/>
        <animateTransform attributeName="transform"
                      type="scale"
                    additive="sum"
                      from="0 0" to="3 3"
                      begin="0s" dur="12s"
                      repeatCount="indefinite"
            />
        
    </circle>
	<circle class="st7" cx="0" cy="0" r="17" transform="translate(709 932)">
        <animate attributeName="cy" attributeType="XML"
             from="0"  to="-80"
             begin="0s" dur="9s"
             additive="sum"
             fill="remove" repeatCount="indefinite"/>
        <animateTransform attributeName="transform"
                      type="scale"
                    additive="sum"
                      from="0 0" to="3 3"
                      begin="0s" dur="9s"
                      repeatCount="indefinite"
            />
        
    </circle>
</g>
    <g id="bottle">
	<polygon class="st5" points="485.6,1247.5 707.6,1247.5 715.6,1131.5 477.6,1131.5 	"/>
	<path class="st5" d="M717.1,1131h-239c-5.5,0-10-4.5-10-10l-31-343c0-5.5,4.5-10,10-10h298c5.5,0,10,4.5,10,10l-28,343
		C727.1,1126.5,722.6,1131,717.1,1131z"/>
	<path class="st6" d="M731.9,772H460.4c-10.9,0-19.8-8.9-19.8-19.8v0c0-10.9,8.9-19.8,19.8-19.8h271.5c10.9,0,19.8,8.9,19.8,19.8v0
		C751.6,763.1,742.8,772,731.9,772z"/>
	<path class="st6" d="M761.8,772.5H430.5c-1.3,0-2.4-1.1-2.4-2.4l3-22.2c0-1.3,1.1-2.4,2.4-2.4h325.2c1.3,0,2.4,1.1,2.4,2.4l3,22.2
		C764.1,771.4,763.1,772.5,761.8,772.5z"/>
</g>
<g id="shadow">
	<path class="st8" d="M760.7,747.9c0-1.3-0.2-2.4-0.4-2.4h-9.3c-2.4-7.6-8.7-13-16.1-13h-42.6c-4.3,0,1.7,8,6.9,13l0.9,13
		c0,9.3-1.3,12.9-1.6,13.8c-69.2,0.3-206,0.5-206,0.5c47,2.7,155,9.7,165,10.7s30-1,32,20s17.8,436-79.1,444c0.1,0,97.1,0,97.1,0
		L715,1131c0,0,9.5,0.5,12.5-9.5s26.2-333.4,27-338c0.6-3.4,1.1-8.3-2.1-11h11.4c0.2,0,0.4-1.1,0.4-2.4L760.7,747.9z"/>
</g>
</svg>
